<svg width="896" height="533" viewBox="0 0 896 533" fill="none" xmlns="http://www.w3.org/2000/svg">
<path d="M667 218.5C667 339.174 569.174 437 448.5 437C327.826 437 230 339.174 230 218.5C230 97.8258 327.826 0 448.5 0C569.174 0 667 97.8258 667 218.5ZM286.602 218.5C286.602 307.914 359.086 380.398 448.5 380.398C537.914 380.398 610.398 307.914 610.398 218.5C610.398 129.086 537.914 56.6025 448.5 56.6025C359.086 56.6025 286.602 129.086 286.602 218.5Z" fill="#FF7520"/>
<path d="M883.9 312.389C890.574 319.034 890.587 329.85 883.781 336.359C766.257 448.748 610.341 533 448 533C285.765 533 129.946 448.857 12.4486 336.579C5.51288 329.951 5.52685 318.933 12.3251 312.165V312.165C19.0815 305.438 29.9891 305.459 36.9366 311.989C147.924 416.299 294.941 474.638 448 474.638C601.164 474.638 748.279 416.218 859.293 311.773C866.11 305.359 876.819 305.338 883.451 311.942L883.9 312.389Z" fill="#0A1045"/>
</svg>
