<svg width="128" height="49" viewBox="0 0 74 29" fill="none" xmlns="http://www.w3.org/2000/svg">
<g clip-path="url(#clip0_19_74)">
<g clip-path="url(#clip1_19_74)">
<g clip-path="url(#clip2_19_74)">
<g clip-path="url(#clip3_19_74)">
<path d="M9.60302 2.18604C10.839 2.18604 11.9668 2.52236 12.9865 3.19502C13.5964 3.58721 14.1161 4.05379 14.5454 4.59476C14.9606 5.1179 14.5362 5.81839 13.8729 5.81839C13.5789 5.81839 13.308 5.66896 13.1155 5.44406C12.742 5.00773 12.2922 4.6513 11.766 4.37476C11.0965 4.01257 10.3755 3.83146 9.60302 3.83146C8.31553 3.83146 7.2186 4.29197 6.31221 5.21299C5.40582 6.12367 4.95262 7.22581 4.95262 8.51937C4.95262 9.81296 5.40582 10.9151 6.31221 11.8258C7.2289 12.7364 8.32583 13.1918 9.60302 13.1918C10.3755 13.1918 11.0965 13.0158 11.766 12.664C12.2923 12.3792 12.7423 12.0177 13.1158 11.5795C13.3079 11.3542 13.5789 11.2048 13.8729 11.2048C14.5362 11.2048 14.9606 11.9052 14.5467 12.4294C14.1171 12.9736 13.5971 13.445 12.9865 13.8437C11.9668 14.506 10.839 14.8372 9.60302 14.8372C7.86234 14.8372 6.37916 14.2215 5.15347 12.99C3.92778 11.7585 3.31494 10.2683 3.31494 8.51937C3.31494 6.77046 3.92778 5.28027 5.15347 4.04879C6.37916 2.80695 7.86234 2.18604 9.60302 2.18604Z" fill="white"/>
<path d="M16.8696 3.11627C16.8696 2.60252 17.2814 2.18604 17.7893 2.18604H23.673C24.1222 2.18604 24.4864 2.55438 24.4864 3.00875C24.4864 3.46312 24.1222 3.83146 23.673 3.83146H18.5073V7.40174H23.673C24.1222 7.40174 24.4864 7.77007 24.4864 8.22444C24.4864 8.67882 24.1222 9.04715 23.673 9.04715H18.5073V13.1918H23.673C24.1222 13.1918 24.4864 13.5601 24.4864 14.0145C24.4864 14.4689 24.1222 14.8372 23.673 14.8372H17.7893C17.2814 14.8372 16.8696 14.4207 16.8696 13.907V3.11627Z" fill="white"/>
<path d="M44.1504 2.18604C44.5998 2.18604 44.9638 2.55438 44.9638 3.00875C44.9638 3.46312 44.5998 3.83146 44.1504 3.83146H41.9665V14.0012C41.9665 14.4629 41.5965 14.8372 41.1401 14.8372C40.6836 14.8372 40.3135 14.4629 40.3135 14.0012V3.83146H38.1142C37.665 3.83146 37.3008 3.46312 37.3008 3.00875C37.3008 2.55438 37.665 2.18604 38.1142 2.18604H44.1504Z" fill="white"/>
<path fill-rule="evenodd" clip-rule="evenodd" d="M46.9771 3.11627C46.9771 2.60252 47.3889 2.18604 47.8967 2.18604H52.6258C53.6867 2.18604 54.5932 2.56376 55.3449 3.31921C56.0969 4.07465 56.4728 4.98533 56.4728 6.05124C56.4728 6.88948 56.2205 7.65009 55.7158 8.33311C55.211 9.01612 54.5674 9.48179 53.7846 9.73017C53.7846 9.73017 53.739 9.81288 53.4759 9.84622C52.9778 9.90935 52.4374 9.90092 52.4374 9.90092H48.6148V14.009C48.6148 14.4664 48.2482 14.8372 47.7959 14.8372C47.3436 14.8372 46.9771 14.4664 46.9771 14.009V3.11627ZM48.6148 8.25549V3.83146H52.6258C53.2335 3.83146 53.7537 4.04879 54.1863 4.48343C54.6189 4.91807 54.8352 5.44068 54.8352 6.05124C54.8352 6.65145 54.6189 7.16888 54.1863 7.60352C53.7537 8.03817 53.2335 8.25549 52.6258 8.25549H48.6148Z" fill="white"/>
<path d="M31.3753 2C32.7092 2 33.8533 2.48961 34.808 3.46884C35.7626 4.44806 36.2399 5.62179 36.2399 6.99001V14.1428C36.2399 14.5263 35.9326 14.8372 35.5535 14.8372C35.1742 14.8372 34.8668 14.5263 34.8668 14.1428V6.99001C34.8668 6.01079 34.5203 5.17241 33.8272 4.47488C33.1472 3.77736 32.3299 3.42859 31.3753 3.42859C30.4209 3.42859 29.597 3.77736 28.9039 4.47488C28.2239 5.17241 27.8838 6.01079 27.8838 6.99001V14.1329C27.8838 14.5219 27.5722 14.8372 27.1876 14.8372C26.803 14.8372 26.4912 14.5219 26.4912 14.1329V6.99001C26.4912 5.62179 26.9685 4.44806 27.9232 3.46884C28.8778 2.48961 30.0285 2 31.3753 2Z" fill="white"/>
<path d="M14.6044 19.8637C15.271 19.201 16.0722 18.8696 17.0082 18.8696C17.9442 18.8696 18.742 19.201 19.4014 19.8637C20.068 20.5194 20.4012 21.3126 20.4012 22.2432C20.4012 23.174 20.068 23.9706 19.4014 24.6333C18.742 25.2891 17.9442 25.617 17.0082 25.617C16.0722 25.617 15.271 25.2891 14.6044 24.6333C13.945 23.9706 13.6152 23.174 13.6152 22.2432C13.6152 21.3126 13.945 20.5194 14.6044 19.8637ZM18.6037 20.657C18.1641 20.2127 17.6322 19.9907 17.0082 19.9907C16.3842 19.9907 15.8489 20.2127 15.4021 20.657C14.9625 21.094 14.7427 21.6229 14.7427 22.2432C14.7427 22.8637 14.9625 23.3926 15.4021 23.8296C15.8489 24.2668 16.3842 24.4852 17.0082 24.4852C17.6322 24.4852 18.1641 24.2668 18.6037 23.8296C19.0504 23.3926 19.2738 22.8637 19.2738 22.2432C19.2738 21.6229 19.0504 21.094 18.6037 20.657Z" fill="#EE7D3B"/>
<path d="M27.9226 22.2435C27.9226 23.1743 27.5893 23.9709 26.9229 24.6336C26.2635 25.2895 25.4658 25.6173 24.5297 25.6173C23.5937 25.6173 22.7924 25.2895 22.1258 24.6336C21.4664 23.9709 21.1367 23.1743 21.1367 22.2435C21.1367 21.3129 21.4664 20.5197 22.1258 19.8641C22.7924 19.2013 23.5937 18.8699 24.5297 18.8699C25.3878 18.8699 26.1429 19.1555 26.7953 19.7266L26.7811 16.1612C26.7798 15.8414 27.0357 15.5815 27.3519 15.5815C27.6672 15.5815 27.9226 15.84 27.9226 16.1589V22.2435ZM22.9343 23.8405C23.3739 24.2777 23.9056 24.4961 24.5297 24.4961C25.1536 24.4961 25.6856 24.2777 26.1252 23.8405C26.5718 23.4033 26.7953 22.871 26.7953 22.2435C26.7953 21.6232 26.5718 21.0943 26.1252 20.6573C25.6856 20.2201 25.1536 20.0015 24.5297 20.0015C23.9056 20.0015 23.3739 20.2201 22.9343 20.6573C22.4946 21.0943 22.2748 21.6232 22.2748 22.2435C22.2748 22.864 22.4946 23.3962 22.9343 23.8405Z" fill="white"/>
<path d="M29.8081 19.8637C30.4747 19.201 31.2759 18.8696 32.2119 18.8696C33.1478 18.8696 33.9456 19.201 34.605 19.8637C35.2716 20.5194 35.6049 21.3126 35.6049 22.2432C35.6049 22.3252 35.601 22.4095 35.5935 22.4962C35.5775 22.6754 35.4224 22.8037 35.2447 22.8037H30.0209C30.1483 23.2973 30.4143 23.7027 30.8184 24.0199C31.2227 24.3303 31.6872 24.4852 32.2119 24.4852C32.7882 24.4852 33.2806 24.305 33.689 23.9442C33.8036 23.8428 33.9468 23.7768 34.099 23.7768H34.3276C34.7407 23.7768 34.9964 24.2183 34.7148 24.5237C34.506 24.7504 34.2638 24.9491 33.9882 25.1198C33.4493 25.4512 32.8572 25.617 32.2119 25.617C31.2759 25.617 30.4747 25.2891 29.8081 24.6333C29.1486 23.9706 28.8188 23.174 28.8188 22.2432C28.8188 21.3126 29.1486 20.5194 29.8081 19.8637ZM30.0209 21.6828H34.403C34.2824 21.1892 34.0166 20.7838 33.6053 20.4666C33.201 20.1493 32.7365 19.9907 32.2119 19.9907C31.6872 19.9907 31.2192 20.1493 30.808 20.4666C30.4037 20.7838 30.1414 21.1892 30.0209 21.6828Z" fill="white"/>
<path d="M36.5645 22.2431C36.5645 21.3125 36.8943 20.5194 37.5537 19.8637C38.0801 19.3347 38.6945 19.0169 39.3969 18.9101C39.6984 18.8643 39.9469 19.1218 39.9469 19.4301C39.9469 19.7383 39.6964 19.982 39.3997 20.053C39.0059 20.1474 38.6564 20.3487 38.3514 20.6569C37.9118 21.0939 37.692 21.6229 37.692 22.2431V25.0588C37.692 25.3671 37.445 25.6169 37.1402 25.6169H37.1163C36.8115 25.6169 36.5645 25.3671 36.5645 25.0588V22.2431Z" fill="white"/>
<path d="M41.275 25.617C40.9638 25.617 40.7114 25.3617 40.7114 25.0467V21.4925C40.7114 20.7732 40.9702 20.1563 41.4878 19.6416C42.0054 19.127 42.6259 18.8696 43.3491 18.8696C44.0795 18.8696 44.6999 19.127 45.2105 19.6416C45.7281 20.1493 45.9869 20.7662 45.9869 21.4925V25.0467C45.9869 25.3617 45.7346 25.617 45.4232 25.617C45.112 25.617 44.8596 25.3617 44.8596 25.0467V21.4925C44.8596 21.0836 44.7106 20.731 44.4128 20.4348C44.115 20.1387 43.7604 19.9907 43.3491 19.9907C42.9378 19.9907 42.5834 20.1387 42.2856 20.4348C41.9878 20.731 41.8388 21.0836 41.8388 21.4925V25.0467C41.8388 25.3617 41.5864 25.617 41.275 25.617Z" fill="white"/>
<path d="M47.2272 21.3777C47.4713 20.4724 47.9984 19.7871 48.809 19.3218C49.6196 18.8564 50.4772 18.7468 51.3816 18.9929C52.2886 19.2294 52.976 19.7506 53.4441 20.5566C53.4592 20.5828 53.4741 20.6095 53.4888 20.6367C53.6175 20.8768 53.5075 21.1674 53.2727 21.3021L48.89 23.8182C49.2486 24.1821 49.6827 24.4009 50.1924 24.4748C50.6984 24.5425 51.1787 24.446 51.633 24.1851C52.1148 23.9085 52.4444 23.5254 52.6215 23.0355C52.6857 22.8584 52.7968 22.6988 52.9589 22.6058C53.3887 22.3591 53.9118 22.6634 53.7772 23.1444C53.7097 23.3851 53.6142 23.6208 53.4904 23.8515C53.1904 24.4065 52.7609 24.8443 52.2021 25.165C51.3915 25.6305 50.5327 25.7449 49.6257 25.5085C48.7213 25.2623 48.0352 24.7362 47.5671 23.9302C47.0991 23.1243 46.9858 22.2735 47.2272 21.3777ZM48.3262 22.8473L52.1212 20.6687C51.7688 20.3012 51.3345 20.0823 50.8187 20.0121C50.3092 19.9382 49.8273 20.0317 49.3728 20.2926C48.9185 20.5535 48.5929 20.9235 48.3963 21.4028C48.2057 21.8785 48.1824 22.36 48.3262 22.8473Z" fill="white"/>
<path d="M10.1451 18.7441C10.8983 18.7441 11.5402 18.9671 12.0709 19.4131C12.6101 19.8591 12.8797 20.3985 12.8797 21.0316V24.9397C12.8797 25.3198 12.5751 25.6279 12.1993 25.6279C11.8235 25.6279 11.5188 25.3198 11.5188 24.9397V21.0316C11.5188 20.7151 11.3819 20.4453 11.108 20.2223C10.8427 19.9993 10.5217 19.8878 10.1451 19.8878C9.76849 19.8878 9.44752 19.9993 9.18219 20.2223C8.91686 20.4453 8.78419 20.7151 8.78419 21.0316V24.9386C8.78419 25.3192 8.47911 25.6279 8.10279 25.6279C7.7272 25.6279 7.42244 25.3205 7.42137 24.9406L7.41046 21.0316C7.41046 20.7151 7.27352 20.4453 6.99962 20.2223C6.73429 19.9993 6.4176 19.8878 6.04956 19.8878C5.67297 19.8878 5.34773 19.9993 5.07383 20.2223C4.8085 20.4453 4.67583 20.7151 4.67583 21.0316V24.9397C4.67583 25.3198 4.37119 25.6279 3.99539 25.6279C3.61959 25.6279 3.31494 25.3198 3.31494 24.9397V21.0316C3.31494 20.3985 3.58027 19.8591 4.11094 19.4131C4.65016 18.9671 5.29637 18.7441 6.04956 18.7441C6.87123 18.7441 7.55596 19.0031 8.10374 19.521C8.6344 19.0031 9.31485 18.7441 10.1451 18.7441Z" fill="white"/>
<path d="M68.7968 8.04645C68.7968 10.8721 66.5321 13.1627 63.7385 13.1627C60.9448 13.1627 58.6802 10.8721 58.6802 8.04645C58.6802 5.22082 60.9448 2.93018 63.7385 2.93018C66.5321 2.93018 68.7968 5.22082 68.7968 8.04645ZM59.9905 8.04645C59.9905 10.1401 61.6686 11.8374 63.7385 11.8374C65.8083 11.8374 67.4864 10.1401 67.4864 8.04645C67.4864 5.9528 65.8083 4.25555 63.7385 4.25555C61.6686 4.25555 59.9905 5.9528 59.9905 8.04645Z" fill="#EE7D3B"/>
<path d="M73.7951 10.2186C73.9516 10.3768 73.9518 10.6336 73.7924 10.7886C71.0804 13.4218 67.4833 15.3953 63.7383 15.3953C59.9933 15.3953 56.3964 13.4218 53.6843 10.7886C53.5248 10.6336 53.5252 10.3768 53.6815 10.2186C53.8379 10.0604 54.0911 10.0609 54.2521 10.2145C56.8136 12.6595 60.2063 14.0269 63.7383 14.0269C67.2705 14.0269 70.663 12.6595 73.2245 10.2145C73.3855 10.0609 73.6388 10.0604 73.7951 10.2186Z" fill="white"/>
<path d="M56.8406 12.2326C55.6029 11.5084 54.4722 10.4943 53.4955 9.39405C53.3474 9.22717 53.0971 9.20782 52.931 9.35576C52.7651 9.50371 52.7465 9.76274 52.8933 9.93091C54.0359 11.2404 55.372 12.3309 56.8406 13.2559V12.2326Z" fill="white"/>
<path d="M58.1284 20.0464V24.9766" stroke="#EE7D3B"/>
<path d="M62.8494 21.5628C62.6986 21.5628 62.5542 21.5414 62.4162 21.4986C62.2783 21.454 62.1688 21.3972 62.0879 21.3284L62.2121 21.0466C62.2893 21.1079 62.385 21.1591 62.499 21.2C62.613 21.241 62.7298 21.2614 62.8494 21.2614C62.9506 21.2614 63.0324 21.2503 63.095 21.2279C63.1575 21.2056 63.2035 21.1759 63.2329 21.1386C63.2623 21.0996 63.277 21.0559 63.277 21.0075C63.277 20.9479 63.2559 20.9005 63.2136 20.8652C63.1713 20.8279 63.1161 20.7991 63.048 20.7786C62.9818 20.7563 62.9073 20.7359 62.8246 20.7172C62.7436 20.6986 62.6618 20.6772 62.579 20.6531C62.4981 20.627 62.4236 20.5945 62.3555 20.5554C62.2893 20.5145 62.235 20.4605 62.1927 20.3935C62.1504 20.3266 62.1293 20.241 62.1293 20.1368C62.1293 20.0307 62.1569 19.934 62.2121 19.8466C62.2691 19.7572 62.3546 19.6866 62.4686 19.6345C62.5845 19.5805 62.7308 19.5535 62.9073 19.5535C63.0232 19.5535 63.1382 19.5684 63.2522 19.5982C63.3663 19.6279 63.4656 19.6707 63.5502 19.7266L63.4371 20.0084C63.3506 19.9563 63.2614 19.9182 63.1694 19.894C63.0775 19.8679 62.9892 19.8549 62.9046 19.8549C62.8052 19.8549 62.7243 19.867 62.6618 19.8912C62.6011 19.9154 62.556 19.947 62.5266 19.9861C62.499 20.0252 62.4852 20.0698 62.4852 20.12C62.4852 20.1796 62.5054 20.2279 62.5459 20.2652C62.5882 20.3005 62.6425 20.3284 62.7087 20.3489C62.7767 20.3693 62.8522 20.3898 62.9349 20.4103C63.0177 20.4289 63.0995 20.4503 63.1805 20.4745C63.2633 20.4986 63.3377 20.5303 63.404 20.5693C63.472 20.6084 63.5263 20.6614 63.5668 20.7284C63.6091 20.7954 63.6302 20.88 63.6302 20.9824C63.6302 21.0866 63.6017 21.1833 63.5447 21.2726C63.4895 21.36 63.404 21.4307 63.2881 21.4847C63.1722 21.5368 63.026 21.5628 62.8494 21.5628ZM63.6024 21.5349L64.4715 19.5814H64.8247L65.6966 21.5349H65.3213L64.5736 19.774H64.7171L63.9722 21.5349H63.6024ZM64.0025 21.0828L64.0991 20.7982H65.142L65.2386 21.0828H64.0025ZM66.6218 21.5628C66.3569 21.5628 66.1491 21.4875 65.9982 21.3368C65.8492 21.1861 65.7747 20.9684 65.7747 20.6838V19.5814H66.1334V20.6698C66.1334 20.8707 66.1757 21.0168 66.2603 21.1079C66.3468 21.1991 66.4682 21.2447 66.6245 21.2447C66.7809 21.2447 66.9014 21.1991 66.986 21.1079C67.0706 21.0168 67.1129 20.8707 67.1129 20.6698V19.5814H67.4661V20.6838C67.4661 20.9684 67.3906 21.1861 67.2398 21.3368C67.0908 21.4875 66.8848 21.5628 66.6218 21.5628ZM66.3928 19.4224L66.7652 19.04H67.1708L66.6908 19.4224H66.3928ZM67.858 21.5349V19.5814H68.7023C68.912 19.5814 69.0959 19.6224 69.2541 19.7042C69.4123 19.7861 69.5355 19.8996 69.6238 20.0447C69.7121 20.1898 69.7563 20.361 69.7563 20.5582C69.7563 20.7535 69.7121 20.9247 69.6238 21.0717C69.5355 21.2168 69.4123 21.3303 69.2541 21.4121C69.0959 21.494 68.912 21.5349 68.7023 21.5349H67.858ZM68.2167 21.2279H68.6857C68.831 21.2279 68.9561 21.2 69.061 21.1442C69.1677 21.0884 69.2495 21.0103 69.3065 20.9098C69.3654 20.8093 69.3948 20.6921 69.3948 20.5582C69.3948 20.4224 69.3654 20.3052 69.3065 20.2066C69.2495 20.1061 69.1677 20.0279 69.061 19.9721C68.9561 19.9163 68.831 19.8884 68.6857 19.8884H68.2167V21.2279ZM70.3583 20.3935H71.3184V20.6921H70.3583V20.3935ZM70.3859 21.2307H71.4757V21.5349H70.0272V19.5814H71.4371V19.8856H70.3859V21.2307ZM72.8036 20.3935H73.7637V20.6921H72.8036V20.3935ZM72.8311 21.2307H73.921V21.5349H72.4725V19.5814H73.8824V19.8856H72.8311V21.2307ZM62.6014 23.8903H63.5936V24.1989H62.6014V23.8903ZM62.63 24.7554H63.7562V25.0698H62.2593V23.0512H63.7163V23.3654H62.63V24.7554ZM64.2834 25.0698V23.0512H64.5883L65.84 24.6054H65.6888V23.0512H66.0567V25.0698H65.7516L64.5001 23.5154H64.6511V25.0698H64.2834ZM67.3242 25.0986C67.1683 25.0986 67.0191 25.0765 66.8765 25.0322C66.734 24.9861 66.6209 24.9275 66.5373 24.8564L66.6655 24.5651C66.7454 24.6285 66.8442 24.6815 66.9621 24.7238C67.08 24.766 67.2006 24.7872 67.3242 24.7872C67.4287 24.7872 67.5133 24.7757 67.5779 24.7526C67.6424 24.7295 67.6901 24.6988 67.7204 24.6603C67.7508 24.6199 67.7661 24.5747 67.7661 24.5247C67.7661 24.4633 67.7442 24.4142 67.7006 24.3777C67.6568 24.3392 67.5998 24.3094 67.5295 24.2882C67.4611 24.2652 67.384 24.2441 67.2985 24.2248C67.2148 24.2056 67.1304 24.1835 67.0448 24.1586C66.9611 24.1316 66.8841 24.0979 66.8138 24.0575C66.7454 24.0153 66.6893 23.9595 66.6457 23.8903C66.6019 23.8211 66.58 23.7327 66.58 23.625C66.58 23.5154 66.6085 23.4155 66.6655 23.3251C66.7244 23.2328 66.8129 23.1599 66.9308 23.1059C67.0505 23.0503 67.2015 23.0224 67.384 23.0224C67.5038 23.0224 67.6226 23.0378 67.7405 23.0685C67.8582 23.0992 67.9608 23.1435 68.0484 23.2012L67.9314 23.4923C67.842 23.4386 67.7499 23.3991 67.655 23.3742C67.5599 23.3472 67.4686 23.3338 67.3813 23.3338C67.2786 23.3338 67.1949 23.3463 67.1304 23.3712C67.0676 23.3963 67.0209 23.4289 66.9906 23.4692C66.9621 23.5096 66.9479 23.5558 66.9479 23.6077C66.9479 23.6692 66.9687 23.7193 67.0106 23.7576C67.0542 23.7943 67.1103 23.8231 67.1787 23.8441C67.249 23.8653 67.327 23.8866 67.4125 23.9076C67.4981 23.9269 67.5827 23.9491 67.6664 23.974C67.7519 23.9989 67.8288 24.0317 67.8972 24.072C67.9675 24.1124 68.0236 24.1671 68.0655 24.2363C68.1091 24.3055 68.131 24.3932 68.131 24.4988C68.131 24.6066 68.1016 24.7065 68.0427 24.7987C67.9857 24.8892 67.8972 24.9621 67.7775 25.0179C67.6577 25.0717 67.5067 25.0986 67.3242 25.0986ZM68.6125 25.0698V23.0512H68.9832V25.0698H68.6125ZM69.6371 25.0698V23.0512H69.942L71.1937 24.6054H71.0425V23.0512H71.4104V25.0698H71.1053L69.8537 23.5154H70.0048V25.0698H69.6371ZM72.9943 25.0986C72.8385 25.0986 72.695 25.0728 72.5639 25.0207C72.4327 24.9688 72.3187 24.8968 72.2218 24.8045C72.1248 24.7104 72.0498 24.6008 71.9964 24.4758C71.9433 24.3489 71.9166 24.2105 71.9166 24.0605C71.9166 23.9106 71.9433 23.7731 71.9964 23.648C72.0498 23.5212 72.1248 23.4116 72.2218 23.3193C72.3187 23.2252 72.4327 23.152 72.5639 23.1001C72.695 23.0482 72.8376 23.0224 72.9915 23.0224C73.1473 23.0224 73.2899 23.0482 73.4192 23.1001C73.5503 23.152 73.6644 23.2252 73.7613 23.3193C73.8583 23.4116 73.9333 23.5212 73.9865 23.648C74.0398 23.7731 74.0663 23.9106 74.0663 24.0605C74.0663 24.2105 74.0398 24.3489 73.9865 24.4758C73.9333 24.6026 73.8583 24.7122 73.7613 24.8045C73.6644 24.8968 73.5503 24.9688 73.4192 25.0207C73.2899 25.0728 73.1483 25.0986 72.9943 25.0986ZM72.9915 24.7699C73.0922 24.7699 73.1854 24.7526 73.2709 24.718C73.3565 24.6834 73.4306 24.6343 73.4933 24.5708C73.556 24.5055 73.6044 24.4306 73.6386 24.3459C73.6749 24.2594 73.6929 24.1643 73.6929 24.0605C73.6929 23.9567 73.6749 23.8626 73.6386 23.7779C73.6044 23.6914 73.556 23.6164 73.4933 23.553C73.4306 23.4877 73.3565 23.4376 73.2709 23.403C73.1854 23.3684 73.0922 23.3511 72.9915 23.3511C72.8907 23.3511 72.7977 23.3684 72.7121 23.403C72.6284 23.4376 72.5543 23.4877 72.4898 23.553C72.427 23.6164 72.3776 23.6914 72.3415 23.7779C72.3073 23.8626 72.2902 23.9567 72.2902 24.0605C72.2902 24.1625 72.3073 24.2566 72.3415 24.3431C72.3776 24.4296 72.427 24.5055 72.4898 24.5708C72.5525 24.6343 72.6266 24.6834 72.7121 24.718C72.7977 24.7526 72.8907 24.7699 72.9915 24.7699Z" fill="#EE7D3B"/>
</g>
</g>
</g>
</g>
<defs>
<clipPath id="clip0_19_74">
<rect width="128" height="28" fill="white" transform="translate(0 0.423828)"/>
</clipPath>
<clipPath id="clip1_19_74">
<rect width="128" height="28" fill="white" transform="translate(0 0.423828)"/>
</clipPath>
<clipPath id="clip2_19_74">
<rect width="128" height="28" fill="white" transform="translate(0 0.423828)"/>
</clipPath>
<clipPath id="clip3_19_74">
<rect width="71" height="24" fill="white" transform="translate(3.31494 2)"/>
</clipPath>
</defs>
</svg>
